<svg width="19" height="26" viewBox="0 0 19 26" fill="none" xmlns="http://www.w3.org/2000/svg">
<path d="M14.2155 6.24722C9.49942 4.02999 5.34665 7.14999 5.34665 7.04166L5.38276 2.27499C5.48831 1.7839 5.3958 1.271 5.12533 0.847719C4.85487 0.424443 4.4283 0.124992 3.93831 0.0144348H0.486092V7.67C0.486092 8.93389 0.486089 10.1906 0.449978 11.4544C0.449978 13.0867 0.449978 14.7261 0.449978 16.3583C0.409093 17.4815 0.447711 18.6062 0.565536 19.7239C0.733718 20.6841 1.11574 21.5943 1.68332 22.3869C2.2509 23.1795 2.9895 23.8343 3.84443 24.3028C5.29543 25.1333 6.91463 25.627 8.58221 25.7472C8.8085 25.7472 9.04924 25.7472 9.30443 25.7472C12.3739 25.7472 15.66 24.4689 17.4077 21.8544C18.715 19.8972 18.5344 17.4706 18.6355 15.2244C18.91 7.82889 14.2155 6.24722 14.2155 6.24722ZM12.2222 19.7383C11.7585 20.357 11.1059 20.8079 10.3632 21.0229C9.62054 21.2379 8.82806 21.2053 8.10554 20.93C4.53054 19.695 4.63165 14.0689 6.3722 11.4111C6.7085 10.9142 7.15413 10.5009 7.67493 10.203C8.19573 9.90501 8.77785 9.73029 9.37664 9.69222C12.215 9.49722 13.3128 12.8989 13.3055 15.1739C13.4032 16.769 13.0263 18.3573 12.2222 19.7383Z" fill="#261632"/>
</svg>
