<svg width="18" height="18" viewBox="0 0 18 18" fill="none" xmlns="http://www.w3.org/2000/svg">
<path d="M16.9461 7.35666L14.2739 5.41388C14.2237 5.36962 14.1836 5.31515 14.1562 5.25411C14.1288 5.19308 14.1147 5.1269 14.115 5.05999V2.28665C14.115 2.23302 14.0937 2.18159 14.0558 2.14366C14.0178 2.10574 13.9664 2.08443 13.9128 2.08443H12.4683C12.4418 2.08443 12.4155 2.08967 12.3909 2.09983C12.3664 2.10999 12.3441 2.12488 12.3253 2.14366C12.3065 2.16244 12.2917 2.18473 12.2815 2.20926C12.2713 2.2338 12.2661 2.2601 12.2661 2.28665V3.16054C12.2655 3.19876 12.2541 3.23603 12.2331 3.26802C12.2122 3.30001 12.1827 3.32542 12.1479 3.34129C12.1131 3.35717 12.0745 3.36286 12.0367 3.35771C11.9988 3.35256 11.9631 3.33679 11.9339 3.31221L9.15332 0.820543C9.0671 0.742892 8.95518 0.699921 8.83915 0.699921C8.72312 0.699921 8.6112 0.742892 8.52498 0.820543L0.724983 7.26999C0.269983 7.68166 0.60943 8.94555 1.22332 8.94555H1.8661C2.05764 8.94555 2.24134 9.02164 2.37678 9.15708C2.51223 9.29253 2.58832 9.47623 2.58832 9.66777V16.9767C2.58832 17.0303 2.60962 17.0817 2.64755 17.1197C2.68547 17.1576 2.73691 17.1789 2.79054 17.1789H14.9672C15.0208 17.1789 15.0723 17.1576 15.1102 17.1197C15.1481 17.0817 15.1694 17.0303 15.1694 16.9767V9.14055C15.1694 9.08691 15.1907 9.03548 15.2287 8.99755C15.2666 8.95963 15.318 8.93833 15.3716 8.93833H16.5778C17.1483 8.93833 17.365 7.73221 16.9461 7.35666ZM12.2733 11.3794C12.2677 11.4555 12.2532 11.5307 12.23 11.6033C12.2161 11.6604 12.1968 11.7161 12.1722 11.7694C12.1217 11.8994 12.0567 12.0222 12.0061 12.1233C11.6461 12.8319 11.0514 13.3935 10.3233 13.7122C9.76476 13.9798 9.15146 14.1134 8.53221 14.1022C7.97649 14.0633 7.43046 13.9365 6.91443 13.7267C6.21587 13.4508 5.60985 12.9825 5.16665 12.3761C4.88841 12.0355 4.73545 11.6098 4.73332 11.17C4.74848 11.0615 4.78611 10.9574 4.84382 10.8643C4.90152 10.7711 4.97803 10.6911 5.06844 10.6292C5.15885 10.5674 5.26117 10.5251 5.36887 10.505C5.47656 10.485 5.58726 10.4876 5.69387 10.5128C6.14887 10.6283 6.51721 11.1556 6.83498 11.4733C7.01947 11.6642 7.22271 11.836 7.44165 11.9861C7.735 12.1163 8.05237 12.1836 8.37332 12.1836C8.69426 12.1836 9.01164 12.1163 9.30498 11.9861C9.86832 11.7622 10.1428 11.1989 10.5761 10.8089C10.673 10.6704 10.8065 10.5615 10.9618 10.4947C11.117 10.4278 11.2878 10.4055 11.455 10.4302C11.6223 10.4549 11.7793 10.5258 11.9085 10.6348C12.0377 10.7437 12.134 10.8866 12.1867 11.0472C12.2243 11.1389 12.2439 11.237 12.2444 11.3361L12.2733 11.3794Z" fill="#271632"/>
</svg>
