<svg width="31" height="26" viewBox="0 0 31 26" fill="none" xmlns="http://www.w3.org/2000/svg">
<path d="M0.74054 25.1478V0H3.13109C3.88144 0.0172356 4.60406 0.286945 5.1822 0.765553C5.41932 0.999867 5.60578 1.28039 5.73002 1.58974C5.85426 1.89909 5.91362 2.23066 5.90443 2.56389C5.90443 2.98759 5.90443 3.4137 5.90443 3.84222V7.87222C5.90443 7.90833 5.90443 8.125 5.90443 8.14666C7.43135 6.65299 9.38957 5.67767 11.5017 5.35889C12.5532 5.22536 13.6214 5.34928 14.6144 5.72C16.0469 6.26575 17.2634 7.26178 18.0811 8.55833C18.9405 10.0028 18.8033 11.635 18.8467 13.2311V16.6833C18.8467 17.1817 18.8467 17.68 18.8467 18.1711C18.8191 18.6568 18.8654 19.1438 18.9839 19.6155C19.1143 20.0327 19.3478 20.4103 19.6628 20.7133C20.2375 21.2246 20.9567 21.545 21.7211 21.6305C21.7211 21.6305 25.1372 21.7317 25.4983 18.8355V8.32722C25.4983 8.32722 24.9711 5.93666 28.2211 5.66944H30.4528V18.8355C30.5054 20.271 30.073 21.6824 29.2252 22.842C28.3775 24.0016 27.1638 24.8419 25.78 25.2272C24.3529 25.6281 22.8682 25.7843 21.3889 25.6894C18.8178 25.5017 15.6111 24.1655 14.5133 21.645C14.1605 20.7955 13.9766 19.8854 13.9717 18.9655C13.9717 17.81 13.9211 16.6472 13.8922 15.4917C13.8922 14.9139 13.8778 14.3385 13.8489 13.7655C13.7933 12.873 13.4712 12.0176 12.9244 11.31C12.6572 10.9561 11.9422 10.0606 11.48 10.0606C10.8318 9.76027 10.109 9.659 9.40325 9.76956C8.69747 9.88012 8.04033 10.1975 7.51499 10.6817C6.89372 11.2694 6.45067 12.0203 6.23665 12.8483C6.23665 12.8483 6.07054 13.8955 6.07054 14.1267V25.6822H0.74054V25.1478Z" fill="#261632"/>
</svg>
