<svg width="33" height="33" viewBox="0 0 33 33" fill="none" xmlns="http://www.w3.org/2000/svg">
<path d="M16.4672 2.28833C19.0182 2.31185 21.5185 3.00255 23.7199 4.29179C25.9212 5.58103 27.7468 7.42391 29.0152 9.63727C30.2836 11.8506 30.9507 14.3574 30.9502 16.9085C30.9497 19.4595 30.2815 21.966 29.0122 24.1789C28.9244 24.3293 28.8985 24.508 28.94 24.6772L30.3844 30.3683C30.3857 30.3762 30.385 30.3842 30.3826 30.3918C30.3801 30.3994 30.3759 30.4063 30.3702 30.4119C30.3646 30.4175 30.3577 30.4218 30.3501 30.4242C30.3426 30.4267 30.3345 30.4273 30.3267 30.4261L24.65 29.0322C24.6192 29.0189 24.586 29.012 24.5525 29.012C24.5189 29.012 24.4858 29.0189 24.455 29.0322C22.1148 30.5994 19.3631 31.4388 16.5467 31.4444C12.6774 31.4559 8.96213 29.9299 6.21806 27.2021C3.47399 24.4743 1.92592 20.7681 1.91443 16.8989C1.90294 13.0297 3.42896 9.31436 6.15678 6.57029C8.8846 3.82622 12.5908 2.27816 16.46 2.26666L16.4672 2.28833Z" stroke="#271632" stroke-width="2.6" stroke-miterlimit="10"/>
</svg>
